<?xml version="1.0" encoding="UTF-8" standalone="no"?>
<!DOCTYPE svg PUBLIC "-//W3C//DTD SVG 1.1//EN"
 "http://www.w3.org/Graphics/SVG/1.1/DTD/svg11.dtd">
<!-- Generated by graphviz version 12.2.1 (20241206.2353)
 -->
<!-- Title: RulePipeline Pages: 1 -->
<svg width="748pt" height="912pt"
 viewBox="14.40 14.40 733.96 897.70" xmlns="http://www.w3.org/2000/svg" xmlns:xlink="http://www.w3.org/1999/xlink">
<g id="graph0" class="graph" transform="scale(1 1) rotate(0) translate(18.4 893.7)">
<title>RulePipeline</title>
<polygon fill="white" stroke="none" points="-4,4 -4,-879.3 715.56,-879.3 715.56,4 -4,4"/>
<!-- INPUT -->
<g id="node1" class="node">
<title>INPUT</title>
<path fill="#e8e8e8" stroke="#333333" stroke-width="1.5" d="M640.19,-875.3C640.19,-875.3 280.04,-875.3 280.04,-875.3 274.04,-875.3 263.58,-871.3 259.11,-867.29 259.11,-867.29 178.16,-794.75 178.16,-794.75 173.69,-790.74 175.22,-786.74 181.22,-786.74 181.22,-786.74 541.37,-786.74 541.37,-786.74 547.37,-786.74 557.83,-790.74 562.3,-794.75 562.3,-794.75 643.25,-867.29 643.25,-867.29 647.72,-871.3 646.19,-875.3 640.19,-875.3"/>
<text text-anchor="middle" x="410.7" y="-834.07" font-family="Helvetica,sans-Serif" font-size="11.00">MarketEvent Stream</text>
<text text-anchor="middle" x="410.7" y="-820.57" font-family="Helvetica,sans-Serif" font-size="11.00">(DEPTH · TRADE · MARK · INDEX · LIQ)</text>
</g>
<!-- P1 -->
<g id="node2" class="node">
<title>P1</title>
<path fill="#f5f5f5" stroke="#666666" stroke-width="1.5" d="M491.91,-736.99C491.91,-736.99 329.49,-736.99 329.49,-736.99 323.49,-736.99 317.49,-730.99 317.49,-724.99 317.49,-724.99 317.49,-695.71 317.49,-695.71 317.49,-689.71 323.49,-683.71 329.49,-683.71 329.49,-683.71 491.91,-683.71 491.91,-683.71 497.91,-683.71 503.91,-689.71 503.91,-695.71 503.91,-695.71 503.91,-724.99 503.91,-724.99 503.91,-730.99 497.91,-736.99 491.91,-736.99"/>
<text text-anchor="middle" x="410.7" y="-718.85" font-family="Helvetica,sans-Serif" font-size="10.00">Phase 1: Lifecycle</text>
<text text-anchor="middle" x="410.7" y="-706.85" font-family="Helvetica,sans-Serif" font-size="10.00">Bootstrap singletons · Event cleanup</text>
<text text-anchor="middle" x="410.7" y="-694.85" font-family="Helvetica,sans-Serif" font-size="10.00">(16 rules)</text>
</g>
<!-- INPUT&#45;&gt;P1 -->
<g id="edge1" class="edge">
<title>INPUT&#45;&gt;P1</title>
<path fill="none" stroke="#333333" stroke-width="1.1" d="M410.7,-786.51C410.7,-773.07 410.7,-758.46 410.7,-745.73"/>
<polygon fill="#333333" stroke="#333333" stroke-width="1.1" points="413.15,-745.92 410.7,-738.92 408.25,-745.92 413.15,-745.92"/>
<text text-anchor="middle" x="432.45" y="-759.14" font-family="Helvetica,sans-Serif" font-size="8.00"> &#160;raw events</text>
</g>
<!-- P2 -->
<g id="node3" class="node">
<title>P2</title>
<path fill="#dcedc8" stroke="#558b2f" stroke-width="1.5" d="M499.04,-633.96C499.04,-633.96 322.37,-633.96 322.37,-633.96 316.37,-633.96 310.37,-627.96 310.37,-621.96 310.37,-621.96 310.37,-592.68 310.37,-592.68 310.37,-586.68 316.37,-580.68 322.37,-580.68 322.37,-580.68 499.04,-580.68 499.04,-580.68 505.04,-580.68 511.04,-586.68 511.04,-592.68 511.04,-592.68 511.04,-621.96 511.04,-621.96 511.04,-627.96 505.04,-633.96 499.04,-633.96"/>
<text text-anchor="middle" x="410.7" y="-615.82" font-family="Helvetica,sans-Serif" font-size="10.00">Phase 2: Ingestion</text>
<text text-anchor="middle" x="410.7" y="-603.82" font-family="Helvetica,sans-Serif" font-size="10.00">Validation · Filtering · Timestamp update</text>
<text text-anchor="middle" x="410.7" y="-591.82" font-family="Helvetica,sans-Serif" font-size="10.00">(13 rules)</text>
</g>
<!-- P1&#45;&gt;P2 -->
<g id="edge2" class="edge">
<title>P1&#45;&gt;P2</title>
<path fill="none" stroke="#333333" stroke-width="1.1" d="M410.7,-683.33C410.7,-670.96 410.7,-656 410.7,-642.7"/>
<polygon fill="#333333" stroke="#333333" stroke-width="1.1" points="413.15,-642.91 410.7,-635.91 408.25,-642.91 413.15,-642.91"/>
<text text-anchor="middle" x="438.08" y="-656.11" font-family="Helvetica,sans-Serif" font-size="8.00"> &#160;initialised facts</text>
</g>
<!-- P3 -->
<g id="node4" class="node">
<title>P3</title>
<path fill="#bbdefb" stroke="#1565c0" stroke-width="1.5" d="M500.91,-521.18C500.91,-521.18 320.49,-521.18 320.49,-521.18 314.49,-521.18 308.49,-515.18 308.49,-509.18 308.49,-509.18 308.49,-479.9 308.49,-479.9 308.49,-473.9 314.49,-467.9 320.49,-467.9 320.49,-467.9 500.91,-467.9 500.91,-467.9 506.91,-467.9 512.91,-473.9 512.91,-479.9 512.91,-479.9 512.91,-509.18 512.91,-509.18 512.91,-515.18 506.91,-521.18 500.91,-521.18"/>
<text text-anchor="middle" x="410.7" y="-503.04" font-family="Helvetica,sans-Serif" font-size="10.00">Phase 3: Data Quality</text>
<text text-anchor="middle" x="410.7" y="-491.04" font-family="Helvetica,sans-Serif" font-size="10.00">Feed health · Book validity · Trade sanity</text>
<text text-anchor="middle" x="410.7" y="-479.04" font-family="Helvetica,sans-Serif" font-size="10.00">(24 rules)</text>
</g>
<!-- P2&#45;&gt;P3 -->
<g id="edge3" class="edge">
<title>P2&#45;&gt;P3</title>
<path fill="none" stroke="#333333" stroke-width="1.1" d="M410.7,-580.35C410.7,-565.21 410.7,-545.94 410.7,-529.59"/>
<polygon fill="#333333" stroke="#333333" stroke-width="1.1" points="413.16,-530.02 410.7,-523.02 408.26,-530.02 413.16,-530.02"/>
<text text-anchor="middle" x="436.95" y="-553.08" font-family="Helvetica,sans-Serif" font-size="8.00"> &#160;valid events +</text>
<text text-anchor="middle" x="436.95" y="-543.33" font-family="Helvetica,sans-Serif" font-size="8.00"> &#160;timestamps</text>
</g>
<!-- P4 -->
<g id="node5" class="node">
<title>P4</title>
<path fill="#ffe0b2" stroke="#ef6c00" stroke-width="1.5" d="M494.54,-408.4C494.54,-408.4 326.87,-408.4 326.87,-408.4 320.87,-408.4 314.87,-402.4 314.87,-396.4 314.87,-396.4 314.87,-367.12 314.87,-367.12 314.87,-361.12 320.87,-355.12 326.87,-355.12 326.87,-355.12 494.54,-355.12 494.54,-355.12 500.54,-355.12 506.54,-361.12 506.54,-367.12 506.54,-367.12 506.54,-396.4 506.54,-396.4 506.54,-402.4 500.54,-408.4 494.54,-408.4"/>
<text text-anchor="middle" x="410.7" y="-390.26" font-family="Helvetica,sans-Serif" font-size="10.00">Phase 4: Derived Analytics</text>
<text text-anchor="middle" x="410.7" y="-378.26" font-family="Helvetica,sans-Serif" font-size="10.00">Spread · Depth · Imbalance · Volatility</text>
<text text-anchor="middle" x="410.7" y="-366.26" font-family="Helvetica,sans-Serif" font-size="10.00">(20 rules)</text>
</g>
<!-- P3&#45;&gt;P4 -->
<g id="edge4" class="edge">
<title>P3&#45;&gt;P4</title>
<path fill="none" stroke="#333333" stroke-width="1.1" d="M410.7,-467.57C410.7,-452.43 410.7,-433.16 410.7,-416.81"/>
<polygon fill="#333333" stroke="#333333" stroke-width="1.1" points="413.16,-417.24 410.7,-410.24 408.26,-417.24 413.16,-417.24"/>
<text text-anchor="middle" x="435.45" y="-440.3" font-family="Helvetica,sans-Serif" font-size="8.00"> &#160;BestBidAsk ·</text>
<text text-anchor="middle" x="435.45" y="-430.55" font-family="Helvetica,sans-Serif" font-size="8.00"> &#160;FeedHealth</text>
</g>
<!-- SIGNAL -->
<g id="node8" class="node">
<title>SIGNAL</title>
<path fill="#e8e8e8" stroke="#333333" stroke-width="1.5" d="M699.56,-88.56C699.56,-88.56 558.35,-88.56 558.35,-88.56 552.35,-88.56 543.76,-83.15 541.16,-77.74 541.16,-77.74 509.05,-10.82 509.05,-10.82 506.45,-5.41 509.85,0 515.85,0 515.85,0 657.06,0 657.06,0 663.06,0 671.65,-5.41 674.25,-10.82 674.25,-10.82 706.36,-77.74 706.36,-77.74 708.96,-83.15 705.56,-88.56 699.56,-88.56"/>
<text text-anchor="middle" x="607.7" y="-47.33" font-family="Helvetica,sans-Serif" font-size="11.00">RiskSignal</text>
<text text-anchor="middle" x="607.7" y="-33.83" font-family="Helvetica,sans-Serif" font-size="11.00">(alerts channel)</text>
</g>
<!-- P3&#45;&gt;SIGNAL -->
<g id="edge7" class="edge">
<title>P3&#45;&gt;SIGNAL</title>
<path fill="none" stroke="#555555" stroke-width="1.1" stroke-dasharray="5,2" d="M457.5,-467.5C480.44,-452.72 506.88,-432.39 524.7,-408.4 594.15,-314.93 606.97,-173.31 608.46,-97.51"/>
<polygon fill="#555555" stroke="#555555" stroke-width="1.1" points="610.91,-97.74 608.56,-90.71 606.01,-97.67 610.91,-97.74"/>
</g>
<!-- P5 -->
<g id="node6" class="node">
<title>P5</title>
<path fill="#d1c4e9" stroke="#4527a0" stroke-width="1.5" d="M501.66,-295.62C501.66,-295.62 319.74,-295.62 319.74,-295.62 313.74,-295.62 307.74,-289.62 307.74,-283.62 307.74,-283.62 307.74,-254.34 307.74,-254.34 307.74,-248.34 313.74,-242.34 319.74,-242.34 319.74,-242.34 501.66,-242.34 501.66,-242.34 507.66,-242.34 513.66,-248.34 513.66,-254.34 513.66,-254.34 513.66,-283.62 513.66,-283.62 513.66,-289.62 507.66,-295.62 501.66,-295.62"/>
<text text-anchor="middle" x="410.7" y="-277.48" font-family="Helvetica,sans-Serif" font-size="10.00">Phase 5: Risk Detection</text>
<text text-anchor="middle" x="410.7" y="-265.48" font-family="Helvetica,sans-Serif" font-size="10.00">Dislocation · Liquidation · Forward chains</text>
<text text-anchor="middle" x="410.7" y="-253.48" font-family="Helvetica,sans-Serif" font-size="10.00">(27 rules)</text>
</g>
<!-- P4&#45;&gt;P5 -->
<g id="edge5" class="edge">
<title>P4&#45;&gt;P5</title>
<path fill="none" stroke="#333333" stroke-width="1.1" d="M410.7,-354.79C410.7,-339.65 410.7,-320.38 410.7,-304.03"/>
<polygon fill="#333333" stroke="#333333" stroke-width="1.1" points="413.16,-304.46 410.7,-297.46 408.26,-304.46 413.16,-304.46"/>
<text text-anchor="middle" x="459.45" y="-327.52" font-family="Helvetica,sans-Serif" font-size="8.00"> &#160;SpreadState · DepthState</text>
<text text-anchor="middle" x="459.45" y="-317.77" font-family="Helvetica,sans-Serif" font-size="8.00"> &#160;VolState · ImbalanceState</text>
</g>
<!-- P4&#45;&gt;SIGNAL -->
<g id="edge8" class="edge">
<title>P4&#45;&gt;SIGNAL</title>
<path fill="none" stroke="#555555" stroke-width="1.1" stroke-dasharray="5,2" d="M492.29,-354.74C501.66,-349.33 510.45,-342.85 517.7,-335.12 530.46,-321.54 526.68,-313.56 531.7,-295.62 554.61,-213.84 540.21,-187.82 570.7,-108.56 572.24,-104.58 574,-100.56 575.91,-96.57"/>
<polygon fill="#555555" stroke="#555555" stroke-width="1.1" points="578.03,-97.81 578.99,-90.46 573.65,-95.61 578.03,-97.81"/>
</g>
<!-- P6 -->
<g id="node7" class="node">
<title>P6</title>
<path fill="#ffcdd2" stroke="#c62828" stroke-width="1.5" d="M389.16,-182.84C389.16,-182.84 210.24,-182.84 210.24,-182.84 204.24,-182.84 198.24,-176.84 198.24,-170.84 198.24,-170.84 198.24,-141.56 198.24,-141.56 198.24,-135.56 204.24,-129.56 210.24,-129.56 210.24,-129.56 389.16,-129.56 389.16,-129.56 395.16,-129.56 401.16,-135.56 401.16,-141.56 401.16,-141.56 401.16,-170.84 401.16,-170.84 401.16,-176.84 395.16,-182.84 389.16,-182.84"/>
<text text-anchor="middle" x="299.7" y="-164.7" font-family="Helvetica,sans-Serif" font-size="10.00">Phase 6: Policy Engine</text>
<text text-anchor="middle" x="299.7" y="-152.7" font-family="Helvetica,sans-Serif" font-size="10.00">Mode transitions · Kill&#45;switch · Recovery</text>
<text text-anchor="middle" x="299.7" y="-140.7" font-family="Helvetica,sans-Serif" font-size="10.00">(5 rules)</text>
</g>
<!-- P5&#45;&gt;P6 -->
<g id="edge6" class="edge">
<title>P5&#45;&gt;P6</title>
<path fill="none" stroke="#333333" stroke-width="1.1" d="M384.68,-242.01C368.81,-226.17 348.42,-205.82 331.59,-189.02"/>
<polygon fill="#333333" stroke="#333333" stroke-width="1.1" points="333.43,-187.4 326.74,-184.19 329.97,-190.87 333.43,-187.4"/>
<text text-anchor="middle" x="390.35" y="-214.74" font-family="Helvetica,sans-Serif" font-size="8.00"> &#160;risk signals +</text>
<text text-anchor="middle" x="390.35" y="-204.99" font-family="Helvetica,sans-Serif" font-size="8.00"> &#160;cascade status</text>
</g>
<!-- P5&#45;&gt;SIGNAL -->
<g id="edge9" class="edge">
<title>P5&#45;&gt;SIGNAL</title>
<path fill="none" stroke="#555555" stroke-width="1.1" stroke-dasharray="5,2" d="M424.49,-241.9C442.96,-208.52 478.16,-150.03 518.7,-108.56 524.69,-102.44 531.34,-96.5 538.22,-90.88"/>
<polygon fill="#555555" stroke="#555555" stroke-width="1.1" points="539.34,-93.12 543.3,-86.85 536.29,-89.29 539.34,-93.12"/>
</g>
<!-- MODE -->
<g id="node9" class="node">
<title>MODE</title>
<path fill="#e8e8e8" stroke="#333333" stroke-width="1.5" d="M455.41,-88.56C455.41,-88.56 107.64,-88.56 107.64,-88.56 101.64,-88.56 91.24,-84.48 86.83,-80.41 86.83,-80.41 8.8,-8.15 8.8,-8.15 4.4,-4.08 6,0 12,0 12,0 359.77,0 359.77,0 365.77,0 376.17,-4.08 380.58,-8.15 380.58,-8.15 458.6,-80.41 458.6,-80.41 463.01,-84.48 461.41,-88.56 455.41,-88.56"/>
<text text-anchor="middle" x="233.7" y="-47.33" font-family="Helvetica,sans-Serif" font-size="11.00">ModeState</text>
<text text-anchor="middle" x="233.7" y="-33.83" font-family="Helvetica,sans-Serif" font-size="11.00">(NORMAL → THROTTLED → HALTED)</text>
</g>
<!-- P6&#45;&gt;MODE -->
<g id="edge10" class="edge">
<title>P6&#45;&gt;MODE</title>
<path fill="none" stroke="#333333" stroke-width="1.1" d="M284.06,-129.15C278.07,-119.16 271,-107.39 264.09,-95.88"/>
<polygon fill="#333333" stroke="#333333" stroke-width="1.1" points="266.37,-94.93 260.67,-90.19 262.17,-97.45 266.37,-94.93"/>
</g>
</g>
</svg>
